PathFileType	4	(X/Y/Z)	c:/Users/goper/Files/vsCode/490R/osim_files/C08/C08_SSWS_04.trc
DataRate	CameraRate	NumFrames	NumMarkers	Units                	OrigDataRate	OrigDataStartFrame	OrigNumFrames
250.00	250.00	11	36	mm	250.0	2741	4384
                Frame#	Time	LPSIS			LASIS			LTH1			LTH2			LTH3			LTH4			LLFE			LMFE			LSH1			LSH2			LSH3			LSH4			LLMAL			LMMAL			LCAL			LMTP5			LTOE			LMTP1			RPSIS			RASIS			RTH1			RTH2			RTH3			RTH4			RLFE			RMFE			RSH1			RSH2			RSH3			RSH4			RLMAL			RMMAL			RCAL			RMTP1			RTOE			RMTP5		
		X1	Y1	Z1	X2	Y2	Z2	X3	Y3	Z3	X4	Y4	Z4	X5	Y5	Z5	X6	Y6	Z6	X7	Y7	Z7	X8	Y8	Z8	X9	Y9	Z9	X10	Y10	Z10	X11	Y11	Z11	X12	Y12	Z12	X13	Y13	Z13	X14	Y14	Z14	X15	Y15	Z15	X16	Y16	Z16	X17	Y17	Z17	X18	Y18	Z18	X19	Y19	Z19	X20	Y20	Z20	X21	Y21	Z21	X22	Y22	Z22	X23	Y23	Z23	X24	Y24	Z24	X25	Y25	Z25	X26	Y26	Z26	X27	Y27	Z27	X28	Y28	Z28	X29	Y29	Z29	X30	Y30	Z30	X31	Y31	Z31	X32	Y32	Z32	X33	Y33	Z33	X34	Y34	Z34	X35	Y35	Z35	X36	Y36	Z36

2741	10.96000	0.00000	0.00000	0.00000	0.00000	0.00000	0.00000	2382.38428	752.22198	361.82773	2356.29688	677.60388	352.42889	2332.37964	607.09143	350.69977	0.00000	0.00000	0.00000	0.00000	0.00000	0.00000	0.00000	0.00000	0.00000	0.00000	0.00000	0.00000	0.00000	0.00000	0.00000	0.00000	0.00000	0.00000	0.00000	0.00000	0.00000	0.00000	0.00000	0.00000	0.00000	0.00000	0.00000	0.00000	0.00000	0.00000	2491.11548	1001.54517	276.92657	0.00000	0.00000	0.00000	0.00000	0.00000	0.00000	2549.79224	1059.50037	121.52805	0.00000	0.00000	0.00000	0.00000	0.00000	0.00000	0.00000	0.00000	0.00000	0.00000	0.00000	0.00000	0.00000	0.00000	0.00000	0.00000	0.00000	0.00000	0.00000	0.00000	0.00000	2613.14038	1109.48706	188.68414	0.00000	0.00000	0.00000	0.00000	0.00000	0.00000	0.00000	0.00000	0.00000	0.00000	0.00000	0.00000	0.00000	0.00000	0.00000	0.00000	0.00000	0.00000	0.00000	0.00000	0.00000	0.00000	0.00000	0.00000	0.00000	0.00000	0.00000
2742	10.96400	0.00000	0.00000	0.00000	0.00000	0.00000	0.00000	2375.85449	753.24872	362.01791	2349.26318	678.70435	352.49530	2324.89258	608.44208	350.51172	0.00000	0.00000	0.00000	0.00000	0.00000	0.00000	0.00000	0.00000	0.00000	0.00000	0.00000	0.00000	0.00000	0.00000	0.00000	0.00000	0.00000	0.00000	0.00000	0.00000	0.00000	0.00000	0.00000	0.00000	0.00000	0.00000	0.00000	0.00000	0.00000	0.00000	2487.06641	1002.16260	276.65335	0.00000	0.00000	0.00000	0.00000	0.00000	0.00000	2545.61890	1059.82581	121.65598	0.00000	0.00000	0.00000	0.00000	0.00000	0.00000	0.00000	0.00000	0.00000	0.00000	0.00000	0.00000	0.00000	0.00000	0.00000	0.00000	0.00000	0.00000	0.00000	0.00000	0.00000	2608.89795	1109.75159	188.77127	0.00000	0.00000	0.00000	0.00000	0.00000	0.00000	0.00000	0.00000	0.00000	0.00000	0.00000	0.00000	0.00000	0.00000	0.00000	0.00000	0.00000	0.00000	0.00000	0.00000	0.00000	0.00000	0.00000	0.00000	0.00000	0.00000	0.00000
2743	10.96800	0.00000	0.00000	0.00000	0.00000	0.00000	0.00000	2369.38037	754.21484	362.20898	2342.37280	679.82593	352.60782	2317.57031	609.74402	350.31458	0.00000	0.00000	0.00000	0.00000	0.00000	0.00000	0.00000	0.00000	0.00000	0.00000	0.00000	0.00000	0.00000	0.00000	0.00000	0.00000	0.00000	0.00000	0.00000	0.00000	0.00000	0.00000	0.00000	0.00000	0.00000	0.00000	0.00000	0.00000	0.00000	0.00000	2483.05493	1002.76849	276.31039	0.00000	0.00000	0.00000	0.00000	0.00000	0.00000	2541.47583	1060.14575	121.77438	0.00000	0.00000	0.00000	0.00000	0.00000	0.00000	0.00000	0.00000	0.00000	0.00000	0.00000	0.00000	0.00000	0.00000	0.00000	0.00000	0.00000	0.00000	0.00000	0.00000	0.00000	2604.70068	1110.04236	188.94601	0.00000	0.00000	0.00000	0.00000	0.00000	0.00000	0.00000	0.00000	0.00000	0.00000	0.00000	0.00000	0.00000	0.00000	0.00000	0.00000	0.00000	0.00000	0.00000	0.00000	0.00000	0.00000	0.00000	0.00000	0.00000	0.00000	0.00000
2744	10.97200	0.00000	0.00000	0.00000	0.00000	0.00000	0.00000	2363.01245	755.20245	362.40103	2335.56982	680.90430	352.64917	2310.30029	610.99774	350.08432	0.00000	0.00000	0.00000	0.00000	0.00000	0.00000	0.00000	0.00000	0.00000	0.00000	0.00000	0.00000	0.00000	0.00000	0.00000	0.00000	0.00000	0.00000	0.00000	0.00000	0.00000	0.00000	0.00000	0.00000	0.00000	0.00000	0.00000	0.00000	0.00000	0.00000	2479.07910	1003.29541	275.96957	0.00000	0.00000	0.00000	0.00000	0.00000	0.00000	2537.31323	1060.45349	121.93471	0.00000	0.00000	0.00000	0.00000	0.00000	0.00000	0.00000	0.00000	0.00000	0.00000	0.00000	0.00000	0.00000	0.00000	0.00000	0.00000	0.00000	0.00000	0.00000	0.00000	0.00000	2600.47607	1110.28271	189.12227	0.00000	0.00000	0.00000	0.00000	0.00000	0.00000	0.00000	0.00000	0.00000	0.00000	0.00000	0.00000	0.00000	0.00000	0.00000	0.00000	0.00000	0.00000	0.00000	0.00000	0.00000	0.00000	0.00000	0.00000	0.00000	0.00000	0.00000
2745	10.97600	0.00000	0.00000	0.00000	0.00000	0.00000	0.00000	2356.71875	756.16992	362.59692	2328.82690	681.91022	352.70865	2303.03198	612.19348	349.45532	0.00000	0.00000	0.00000	0.00000	0.00000	0.00000	0.00000	0.00000	0.00000	2387.61475	495.89261	337.19208	2408.54321	453.35242	336.35931	0.00000	0.00000	0.00000	2364.25049	428.61380	346.59253	0.00000	0.00000	0.00000	0.00000	0.00000	0.00000	0.00000	0.00000	0.00000	2474.95264	1003.78577	275.80521	0.00000	0.00000	0.00000	0.00000	0.00000	0.00000	2533.14966	1060.72388	122.12537	0.00000	0.00000	0.00000	0.00000	0.00000	0.00000	0.00000	0.00000	0.00000	0.00000	0.00000	0.00000	0.00000	0.00000	0.00000	0.00000	0.00000	0.00000	0.00000	0.00000	0.00000	2596.25928	1110.50940	189.28365	0.00000	0.00000	0.00000	0.00000	0.00000	0.00000	0.00000	0.00000	0.00000	0.00000	0.00000	0.00000	0.00000	0.00000	0.00000	0.00000	0.00000	0.00000	0.00000	0.00000	0.00000	0.00000	0.00000	0.00000	0.00000	0.00000	0.00000
2746	10.98000	0.00000	0.00000	0.00000	0.00000	0.00000	0.00000	2350.48145	757.09924	362.80023	2322.17407	682.89337	352.74872	2295.90918	613.28876	349.17560	0.00000	0.00000	0.00000	0.00000	0.00000	0.00000	0.00000	0.00000	0.00000	2379.62427	495.33765	336.87436	2399.92798	452.48923	336.28302	2327.42529	462.61087	350.04852	2355.07471	428.47638	346.57172	0.00000	0.00000	0.00000	0.00000	0.00000	0.00000	0.00000	0.00000	0.00000	2470.83252	1004.22601	275.65616	0.00000	0.00000	0.00000	0.00000	0.00000	0.00000	2529.02368	1060.96960	122.33140	0.00000	0.00000	0.00000	0.00000	0.00000	0.00000	0.00000	0.00000	0.00000	0.00000	0.00000	0.00000	0.00000	0.00000	0.00000	0.00000	0.00000	0.00000	0.00000	0.00000	0.00000	2592.09009	1110.76111	189.51566	0.00000	0.00000	0.00000	0.00000	0.00000	0.00000	0.00000	0.00000	0.00000	0.00000	0.00000	0.00000	0.00000	0.00000	0.00000	0.00000	0.00000	0.00000	0.00000	0.00000	0.00000	0.00000	0.00000	0.00000	0.00000	0.00000	0.00000
2747	10.98400	0.00000	0.00000	0.00000	0.00000	0.00000	0.00000	2344.25195	757.93237	362.93253	2315.53711	683.79572	352.73911	2288.93335	614.37366	348.86569	0.00000	0.00000	0.00000	0.00000	0.00000	0.00000	0.00000	0.00000	0.00000	2371.81396	494.74454	336.65866	2391.31543	451.54089	336.26270	2319.00537	463.01077	349.87994	2346.01904	428.26251	346.57144	0.00000	0.00000	0.00000	0.00000	0.00000	0.00000	0.00000	0.00000	0.00000	2466.72900	1004.63293	275.52530	0.00000	0.00000	0.00000	0.00000	0.00000	0.00000	2524.87598	1061.22095	122.54183	0.00000	0.00000	0.00000	0.00000	0.00000	0.00000	0.00000	0.00000	0.00000	0.00000	0.00000	0.00000	0.00000	0.00000	0.00000	0.00000	0.00000	0.00000	0.00000	0.00000	0.00000	2587.90918	1110.96570	189.72855	0.00000	0.00000	0.00000	0.00000	0.00000	0.00000	0.00000	0.00000	0.00000	0.00000	0.00000	0.00000	0.00000	0.00000	0.00000	0.00000	0.00000	0.00000	0.00000	0.00000	0.00000	0.00000	0.00000	0.00000	0.00000	0.00000	0.00000
2748	10.98800	0.00000	0.00000	0.00000	0.00000	0.00000	0.00000	2338.03711	758.66101	363.09409	2309.00024	684.65063	352.70944	2282.37598	615.69446	348.98453	0.00000	0.00000	0.00000	0.00000	0.00000	0.00000	0.00000	0.00000	0.00000	2363.87744	493.87289	336.33911	2382.73267	450.48334	336.21524	2309.39014	464.74200	349.16760	2336.99048	428.05145	346.54047	0.00000	0.00000	0.00000	0.00000	0.00000	0.00000	0.00000	0.00000	0.00000	2462.61621	1005.00043	275.43503	0.00000	0.00000	0.00000	0.00000	0.00000	0.00000	2520.73169	1061.40637	122.78606	0.00000	0.00000	0.00000	0.00000	0.00000	0.00000	0.00000	0.00000	0.00000	0.00000	0.00000	0.00000	0.00000	0.00000	0.00000	0.00000	0.00000	0.00000	0.00000	0.00000	0.00000	2583.71411	1111.13562	189.96751	0.00000	0.00000	0.00000	0.00000	0.00000	0.00000	0.00000	0.00000	0.00000	0.00000	0.00000	0.00000	0.00000	0.00000	0.00000	0.00000	0.00000	0.00000	0.00000	0.00000	0.00000	0.00000	0.00000	0.00000	0.00000	0.00000	0.00000
2749	10.99200	0.00000	0.00000	0.00000	0.00000	0.00000	0.00000	2331.90869	759.33740	363.20804	2302.57690	685.48755	352.69827	2275.64648	616.69397	348.63354	0.00000	0.00000	0.00000	0.00000	0.00000	0.00000	0.00000	0.00000	0.00000	2356.25000	493.09189	336.15524	2374.20044	449.37125	336.19830	2301.16699	464.97183	348.99832	2328.05566	427.78113	346.56644	0.00000	0.00000	0.00000	0.00000	0.00000	0.00000	0.00000	0.00000	0.00000	2458.43164	1005.26727	275.38358	0.00000	0.00000	0.00000	0.00000	0.00000	0.00000	2516.61890	1061.59985	123.04200	0.00000	0.00000	0.00000	0.00000	0.00000	0.00000	0.00000	0.00000	0.00000	0.00000	0.00000	0.00000	0.00000	0.00000	0.00000	0.00000	0.00000	0.00000	0.00000	0.00000	0.00000	2579.51465	1111.26587	190.21117	0.00000	0.00000	0.00000	0.00000	0.00000	0.00000	0.00000	0.00000	0.00000	0.00000	0.00000	0.00000	0.00000	0.00000	0.00000	0.00000	0.00000	0.00000	0.00000	0.00000	0.00000	0.00000	0.00000	0.00000	0.00000	0.00000	0.00000
2750	10.99600	0.00000	0.00000	0.00000	0.00000	0.00000	0.00000	2326.28735	760.06891	363.31445	2296.18726	686.24622	352.65579	2268.97876	617.59674	348.25107	0.00000	0.00000	0.00000	0.00000	0.00000	0.00000	0.00000	0.00000	0.00000	2348.47778	492.09235	335.91232	2365.61450	448.02869	336.17764	2292.55811	464.49741	348.95679	2319.15283	427.43121	346.59140	0.00000	0.00000	0.00000	0.00000	0.00000	0.00000	0.00000	0.00000	0.00000	2454.25098	1005.50000	275.34848	0.00000	0.00000	0.00000	0.00000	0.00000	0.00000	2512.46704	1061.70349	123.34470	0.00000	0.00000	0.00000	0.00000	0.00000	0.00000	0.00000	0.00000	0.00000	0.00000	0.00000	0.00000	0.00000	0.00000	0.00000	0.00000	0.00000	0.00000	0.00000	0.00000	0.00000	2575.27710	1111.32715	190.45148	0.00000	0.00000	0.00000	0.00000	0.00000	0.00000	0.00000	0.00000	0.00000	0.00000	0.00000	0.00000	0.00000	0.00000	0.00000	0.00000	0.00000	0.00000	0.00000	0.00000	0.00000	0.00000	0.00000	0.00000	2334.41797	52.54767	157.91434
2751	11.00000	0.00000	0.00000	0.00000	0.00000	0.00000	0.00000	2321.21802	760.76086	363.39267	2290.01147	686.98419	352.61102	2262.45337	618.46783	347.94534	0.00000	0.00000	0.00000	0.00000	0.00000	0.00000	0.00000	0.00000	0.00000	2340.97998	491.08096	335.75555	2357.19360	446.68176	336.20148	2284.58667	464.68109	348.85046	2310.36377	427.04547	346.63394	0.00000	0.00000	0.00000	0.00000	0.00000	0.00000	0.00000	0.00000	0.00000	2450.16064	1005.73181	275.20984	0.00000	0.00000	0.00000	0.00000	0.00000	0.00000	2508.33081	1061.81238	123.61051	0.00000	0.00000	0.00000	0.00000	0.00000	0.00000	-1502.28979	741.07300	2792.08691	0.00000	0.00000	0.00000	0.00000	0.00000	0.00000	0.00000	0.00000	0.00000	0.00000	0.00000	0.00000	2571.10815	1111.38794	190.76064	0.00000	0.00000	0.00000	0.00000	0.00000	0.00000	0.00000	0.00000	0.00000	0.00000	0.00000	0.00000	0.00000	0.00000	0.00000	0.00000	0.00000	0.00000	0.00000	0.00000	0.00000	0.00000	0.00000	0.00000	2334.42017	52.54206	157.89818
